# xmcd
#
# Track frame offsets: 
#        150
#        17457
#        32260
#        47427
#        63285
#        80800
#        96112
#        113975
#        127967
#        143715
#
# Disc length: 2128 seconds
#
# Revision: 1
# Processed by: cddbd v1.5.2PL0 Copyright (c) Steve Scherf et al.
# Submitted via: ExactAudioCopy v1.0b3
#
DISCID=74084e0a
DTITLE=El Gran Combo - Internacional
DYEAR=1977
DGENRE=Salsa
TTITLE0=Moforibale al Tambo
TTITLE1=Que Falta de Respeto
TTITLE2=Carcelera
TTITLE3=No Necesito Nada
TTITLE4=Homenaje a Mexico
TTITLE5=Cuando el Hombre Quiere
TTITLE6=Buscando Ambiente
TTITLE7=Compadre Pedro Juan
TTITLE8=Aunque Me Pidas Perdon
TTITLE9=En el Parque
EXTD=YEAR: 1990
EXTT0=
EXTT1=
EXTT2=
EXTT3=
EXTT4=
EXTT5=
EXTT6=
EXTT7=
EXTT8=
EXTT9=
PLAYORDER=
